# xmcd
#
# Track frame offsets:
#	150
#	9999
#	22168
#	33605
#	50106
#	63751
#	77232
#	92585
#	107478
#	118995
#	134024
#	150585
#
# Disc length: 2141 seconds
#
# Revision: 1
# Processed by: cddbd v1.5.2PL0 Copyright (c) Steve Scherf et al.
# Submitted via: audiograbber 1.83.01
#
DISCID=9e085b0c
DTITLE=County 20 - County 20
DYEAR=2002
DGENRE=Country
TTITLE0=Sunny Side Of The Mountain
TTITLE1=Too Late For Montana
TTITLE2=Sittin' On Top Of The World
TTITLE3=Then You Can Tell Me Goodbye
TTITLE4=Blue Birds Are Singing For Me
TTITLE5=Itasca
TTITLE6=There's An Old Man In Our Town
TTITLE7=You Ain't Goin' Nowhere
TTITLE8=Love, Please Come Home
TTITLE9=Dim Lights, Thick Smoke
TTITLE10=Wayfaring Stranger
TTITLE11=Blue Shadows On The Trail
EXTD=Dale Westby - Banjo, Jeff Lindstrom - Mandolin, Rick Amsberry - Bass, Dean
EXTD=Westby - Guitar.
EXTT0=
EXTT1=
EXTT2=
EXTT3=
EXTT4=
EXTT5=
EXTT6=
EXTT7=
EXTT8=
EXTT9=
EXTT10=
EXTT11=
PLAYORDER=
